<?xml version="1.0" encoding="utf-8"?>
<!-- Generator: Adobe Illustrator 24.0.2, SVG Export Plug-In . SVG Version: 6.00 Build 0)  -->
<svg version="1.1" xmlns="http://www.w3.org/2000/svg" xmlns:xlink="http://www.w3.org/1999/xlink" x="0px" y="0px"
	 viewBox="0 0 1920 1080" style="enable-background:new 0 0 1920 1080;" xml:space="preserve">
<style type="text/css">
	.st0{fill:#FFFFFF;}
	.st1{stroke:#000000;stroke-linecap:round;stroke-linejoin:round;stroke-miterlimit:10;}
	.st2{display:none;}
	.st3{display:inline;}
	.st4{display:inline;stroke:#000000;stroke-linecap:round;stroke-linejoin:round;stroke-miterlimit:10;}
</style>
<g id="body-fill">
	<g>
		<path class="st0" d="M1342.911,680.62c3.98-15.91-13.11-31.21-21.07-23.26c11.93,3.98,17.05,26.28,13.07,30.26
			c-11.93-7.96-17.05,33.39-88.66,9.52c12.66-15.52,29.66-43.52,59.66-48.52c17,0,23-11,27.86-23.08
			C1362.911,632.62,1378.911,673.62,1342.911,680.62z"/>
		<path class="st0" d="M788.911,720.62c0,24-75.73,4.37-75.73-35.41c-11.58,10.62,3.98,39.78,35.8,51.72
			c-60.07,24.69-92.07-62.31-19.89-71.61C761.911,676.62,769.021,708.69,788.911,720.62z"/>
		<path class="st0" d="M1309.911,641.45c-23.87-3.98-55.7,31.83-75.59,51.72c-79.56,47.73-87.52-11.94-155.15-7.96
			c27.85,7.96,39.78,7.96,47.74,19.89c-47.74,39.78-119.35,7.96-163.11,3.98c15.92-3.98,23.87-15.91,23.87-23.87
			c-51.71,51.72-179.02,51.72-194.93,27.85c-27.85-47.74-75.58-55.7-79.56-107.41c-3.98,23.87,8.73,33.06,8.73,48.97
			c-53-30-12.71-92.73,7.18-96.71c2.94-0.6,9.75,2.03,11.94,0c-11.94-15.91-15.12-31.29,0.88-42.29c0,11.93,20,29,30.94,34.33
			c-52.61-53.99-39.94-169.33,79.06-145.33c0.89,0.1-2.53-5.18-8-10c2-44,54-92,129-75c-11.93,11.93-13.08,39.38-5.13,39.38
			c-1.87-39.38,43.13-66.38,58.13-51.38c-8,7-10.39,15.58-10.39,19.55c43.39-57.55,202.39-69.55,171.06,99.46
			c4.33-4.01,9.33-9.01,10.33-32.01c115.37,0,97.08,119.53,69.24,163.29c11.76-5.29,16.78-17.33,20.76-25.29
			C1362.501,520.69,1337.751,637.47,1309.911,641.45z"/>
	</g>
</g>
<g id="outline">
	<path class="st1" d="M1339.33,615.47c9.95-21.88,14.81-102.89-50.83-88.97c23-52,3.49-155.92-90-142c6.38-79.24-70-139-165.49-83.3
		c-5.97-13.93-42.51-3.7-56.51,11.3c-68-19-135,21-142.4,80.19c-13.92-9.94-129.29,5.97-99.45,115.37
		c-8.2,6.37-13.93,9.95-11.94,39.78c-33.81,13.93-61.66,81.56-11.93,111.39c-61.66,13.93-38.79,128.02,50.72,82.27
		c10,1,26.85-0.72,32.82-14.64c41.77,25.86,81.55,17.9,155.15-3.98c45.75-5.96,157.14,37.8,179.02-11.93
		c25.86,7.24,53.7,37.79,107.41-3.98c13.92,5.97,61.66,25.86,103.43-15.91C1361.21,701,1404.97,649.29,1339.33,615.47z
		 M712.77,685.09c-11.58,10.62,3.98,39.78,35.8,51.72c-60.07,24.69-92.07-62.31-19.89-71.61c32.82,11.3,39.93,43.37,59.82,55.3
		C788.5,744.5,712.77,724.87,712.77,685.09z M1233.91,693.05c-79.56,47.73-87.52-11.94-155.15-7.96
		c27.85,7.96,39.78,7.96,47.74,19.89c-47.74,39.78-119.35,7.96-163.11,3.98c15.92-3.98,23.87-15.91,23.87-23.87
		c-51.71,51.72-179.02,51.72-194.93,27.85c-27.85-47.74-75.58-55.7-79.56-107.41c-3.98,23.87,8.73,33.06,8.73,48.97
		c-53-30-12.71-92.73,7.18-96.71c2.94-0.6,9.75,2.03,11.94,0c-11.94-15.91-15.12-31.29,0.88-42.29c0,11.93,20,29,30.94,34.33
		C719.83,495.84,732.5,380.5,851.5,404.5c0.89,0.1-2.53-5.18-8-10c2-44,54-92,129-75c-11.93,11.93-13.08,39.38-5.13,39.38
		c-1.87-39.38,43.13-66.38,58.13-51.38c-8,7-10.39,15.58-10.39,19.55c43.39-57.55,202.39-69.55,171.06,99.46
		c4.33-4.01,9.33-9.01,10.33-32.01c115.37,0,97.08,119.53,69.24,163.29c11.76-5.29,16.78-17.33,20.76-25.29
		c75.59-11.93,50.84,104.85,23,108.83C1285.63,637.35,1253.8,673.16,1233.91,693.05z M1342.5,680.5
		c3.98-15.91-13.11-31.21-21.07-23.26c11.93,3.98,17.05,26.28,13.07,30.26c-11.93-7.96-17.05,33.39-88.66,9.52
		c12.66-15.52,29.66-43.52,59.66-48.52c17,0,23-11,27.86-23.08C1362.5,632.5,1378.5,673.5,1342.5,680.5z"/>
</g>
<g id="eyes">
	<g>
		<g>
			<path d="M971.837,523.032c-3.795-0.002-20.297-29.946-21.021-38.144c-0.964-10.922,16.246-42.683,22.34-49.339
				c0.824-0.9,1.409-1.302,1.896-1.302c0.253,0,0.48,0.108,0.637,0.304c0.33,0.412,0.34,1.178,0.033,2.563
				c-5.961,26.825-6.013,62.33-2.983,83.538c0.153,1.072,0.08,1.714-0.237,2.079C972.334,522.925,972.098,523.032,971.837,523.032
				L971.837,523.032z"/>
			<path d="M975.052,434.748c0.433,0,0.528,0.7,0.181,2.258c-5.98,26.909-5.98,62.787-2.99,83.716
				c0.179,1.25,0.017,1.809-0.407,1.809c-3.059,0-19.77-29.161-20.522-37.688C950.251,472.79,971.859,434.748,975.052,434.748
				 M975.052,433.748c-0.648,0-1.325,0.438-2.264,1.464c-6.132,6.697-23.443,38.694-22.469,49.72
				c0.414,4.688,5.188,14.665,9.519,22.44c2.37,4.255,4.781,8.178,6.789,11.044c3.15,4.496,4.366,5.116,5.21,5.116
				c0.408,0,0.778-0.168,1.043-0.473c0.426-0.491,0.531-1.232,0.354-2.477c-3.023-21.163-2.972-56.592,2.976-83.358
				c0.349-1.569,0.311-2.434-0.131-2.984C975.825,433.923,975.461,433.748,975.052,433.748L975.052,433.748z"/>
		</g>
		<g>
			<path d="M1062.52,523.032c-0.261,0-0.497-0.107-0.666-0.301c-0.316-0.365-0.39-1.007-0.236-2.079
				c3.03-21.209,2.978-56.713-2.983-83.538c-0.308-1.384-0.298-2.15,0.033-2.563c0.157-0.196,0.383-0.304,0.637-0.304
				c0.487,0,1.071,0.402,1.896,1.302c6.095,6.656,23.305,38.418,22.34,49.339C1082.816,493.088,1066.313,523.032,1062.52,523.032z"
				/>
			<path d="M1059.304,434.748c3.194-0.002,24.802,38.041,23.737,50.096c-0.753,8.527-17.463,37.688-20.522,37.688
				c-0.424,0-0.585-0.559-0.407-1.809c2.99-20.929,2.99-56.807-2.99-83.716C1058.777,435.448,1058.871,434.749,1059.304,434.748
				 M1059.304,433.748C1059.304,433.748,1059.304,433.748,1059.304,433.748c-0.409,0-0.773,0.175-1.027,0.491
				c-0.441,0.551-0.479,1.415-0.131,2.984c5.948,26.766,6,62.195,2.976,83.358c-0.178,1.246-0.072,1.986,0.354,2.477
				c0.265,0.305,0.635,0.473,1.043,0.473c0.845,0,2.061-0.62,5.21-5.116c2.008-2.866,4.419-6.788,6.789-11.044
				c4.33-7.775,9.105-17.753,9.519-22.44c0.974-11.027-16.336-43.022-22.468-49.719
				C1060.63,434.186,1059.952,433.748,1059.304,433.748L1059.304,433.748z"/>
		</g>
	</g>
	<path class="st1" d="M1012.607,549.126"/>
	<path class="st1" d="M536.607,549.126"/>
</g>
<g id="happy-eyes" class="st2">
	<g class="st3">
		<g>
			<path d="M977.24,502.24c-0.118,0-0.234-0.042-0.328-0.122c-10.091-8.754-21.486-10.592-29.268-10.592
				c-8.349,0-14.4,2.056-14.461,2.077c-0.053,0.019-0.108,0.027-0.163,0.027c-0.156,0-0.307-0.073-0.403-0.204
				c-0.129-0.176-0.129-0.417,0-0.593c3.967-5.391,10.771-8.604,18.726-8.861c-0.125-11.604,16.771-42.593,22.501-48.672
				c0.762-0.808,1.309-1.168,1.772-1.168c0.254,0,0.48,0.108,0.638,0.304c0.331,0.412,0.341,1.178,0.033,2.563
				c-1.279,5.756-2.405,10.361-3.31,14.061c-3.351,13.705-4.251,17.389-1.913,33.75c0.248,1.756-0.049,3.284-0.883,4.552
				c4.539,3.253,7.149,7.509,7.556,12.337c0.018,0.203-0.09,0.396-0.271,0.488C977.396,502.223,977.317,502.24,977.24,502.24z"/>
			<path d="M975.618,434.631c0.434-0.001,0.529,0.699,0.182,2.259c-5.98,26.91-8.22,27.06-5.23,47.99c0.27,1.91-0.17,3.44-1.09,4.6
				c4.32,2.96,7.33,7.15,7.76,12.26c-9.887-8.577-20.99-10.714-29.596-10.714c-8.541,0-14.624,2.104-14.624,2.104
				c4.32-5.87,11.51-8.55,18.84-8.67C951.13,472.117,972.443,434.635,975.618,434.631 M975.618,433.631c0,0-0.001,0-0.001,0
				c-0.622,0.001-1.262,0.399-2.14,1.331c-5.846,6.21-22.328,36.25-22.631,48.53c-7.901,0.374-14.653,3.639-18.632,9.045
				c-0.259,0.352-0.259,0.833,0,1.185c0.192,0.261,0.494,0.408,0.806,0.408c0.109,0,0.219-0.018,0.326-0.055
				c0.06-0.02,6.044-2.049,14.298-2.049c7.697,0,18.966,1.817,28.94,10.469c0.186,0.161,0.42,0.245,0.655,0.245
				c0.154,0,0.309-0.036,0.453-0.108c0.363-0.184,0.578-0.57,0.544-0.975c-0.402-4.772-3.016-9.154-7.392-12.429
				c0.705-1.285,0.952-2.816,0.716-4.487c-2.324-16.267-1.512-19.588,1.904-33.563c0.905-3.702,2.031-8.309,3.312-14.07
				c0.349-1.57,0.311-2.434-0.131-2.985C976.391,433.806,976.027,433.631,975.618,433.631L975.618,433.631z"/>
		</g>
		<g>
			<path d="M1057.02,506.24c-0.077,0-0.154-0.018-0.227-0.054c-0.181-0.092-0.289-0.285-0.271-0.487
				c0.408-4.897,3.093-9.211,7.771-12.5c-0.333-0.917-0.406-2.054-0.218-3.389c2.718-19.021,1.42-24.791-3.407-46.262
				c-0.458-2.035-0.946-4.21-1.467-6.55c-0.404-1.82-0.256-2.326-0.034-2.602c0.137-0.17,0.33-0.264,0.547-0.264
				c0.323,0,0.657,0.208,1.084,0.673c4.501,4.917,20.307,38.694,19.311,49.968c-0.096,1.106-0.381,2.205-0.852,3.276
				c0.867-0.069,1.738-0.104,2.598-0.104c8.419,0,15.631,3.239,19.788,8.887c0.13,0.176,0.13,0.417,0,0.593
				c-0.096,0.13-0.247,0.204-0.402,0.204c-0.055,0-0.109-0.009-0.163-0.027c-0.061-0.021-6.113-2.077-14.461-2.077
				c-7.782,0-19.178,1.838-29.269,10.592C1057.254,506.199,1057.138,506.24,1057.02,506.24z"/>
			<path d="M1059.714,434.633c2.454,0,20.962,38.042,19.896,50.097c-0.12,1.39-0.55,2.7-1.19,3.9
				c1.14-0.122,2.289-0.184,3.435-0.184c7.523,0,14.959,2.67,19.385,8.684c0,0-6.084-2.103-14.624-2.104
				c-8.607,0-19.707,2.135-29.596,10.714c0.43-5.16,3.5-9.38,7.89-12.36c-0.41-0.85-0.55-2.01-0.34-3.5
				c2.99-20.93,1.1-26.08-4.88-52.99C1059.344,435.332,1059.381,434.633,1059.714,434.633 M1059.714,433.633
				c-0.366,0-0.707,0.164-0.937,0.451c-0.42,0.523-0.437,1.343-0.063,3.023c0.52,2.339,1.009,4.514,1.466,6.549
				c4.811,21.401,6.104,27.153,3.4,46.082c-0.176,1.249-0.134,2.343,0.125,3.266c-4.557,3.316-7.276,7.783-7.682,12.653
				c-0.034,0.405,0.181,0.791,0.544,0.975c0.143,0.073,0.298,0.108,0.452,0.108c0.236,0,0.47-0.083,0.656-0.245
				c9.974-8.653,21.242-10.469,28.938-10.469c8.255,0,14.241,2.029,14.3,2.049c0.107,0.037,0.217,0.055,0.326,0.055
				c0.312,0,0.614-0.146,0.806-0.408c0.259-0.353,0.259-0.833,0-1.185c-4.252-5.777-11.61-9.091-20.189-9.091
				c-0.611,0-1.226,0.017-1.842,0.051c0.315-0.882,0.514-1.779,0.592-2.682c1.005-11.366-14.907-45.397-19.44-50.348
				C1060.81,434.079,1060.324,433.633,1059.714,433.633L1059.714,433.633z"/>
		</g>
	</g>
</g>
<g id="sad-eyes" class="st2">
	<g class="st3">
		<g>
			<path d="M978.487,544.159c-0.465-0.001-1.012-0.362-1.776-1.174c-5.729-6.085-22.623-37.078-22.498-48.667
				c-7.954-0.257-14.759-3.471-18.726-8.861c-0.129-0.176-0.129-0.417,0-0.593c0.096-0.13,0.247-0.204,0.403-0.204
				c0.055,0,0.11,0.009,0.163,0.027c0.061,0.021,6.112,2.077,14.461,2.077c7.782,0,19.178-1.838,29.268-10.592
				c0.093-0.081,0.21-0.123,0.328-0.123c0.077,0,0.155,0.018,0.227,0.054c0.181,0.092,0.289,0.285,0.271,0.488
				c-0.406,4.828-3.015,9.084-7.556,12.337c0.834,1.268,1.131,2.796,0.883,4.551c-2.337,16.362-1.437,20.046,1.914,33.752
				c0.904,3.699,2.03,8.304,3.309,14.06c0.308,1.385,0.297,2.151-0.033,2.563c-0.157,0.195-0.383,0.304-0.637,0.304
				C978.488,544.159,978.487,544.159,978.487,544.159z"/>
			<path d="M980.11,476.55h0.005 M980.11,476.55c-0.43,5.11-3.44,9.3-7.76,12.26c0.92,1.16,1.36,2.69,1.09,4.6
				c-2.99,20.93-0.75,21.08,5.23,47.99c0.346,1.56,0.252,2.259-0.182,2.259c-3.175,0-24.488-37.486-23.758-49.829
				c-7.33-0.12-14.52-2.8-18.84-8.67c0,0,6.083,2.104,14.624,2.104C959.12,487.264,970.223,485.127,980.11,476.55 M980.11,475.55
				c-0.007,0-0.015,0-0.022,0c-0.244,0.005-0.466,0.098-0.636,0.247c-9.973,8.65-21.241,10.467-28.937,10.467
				c-8.254,0-14.238-2.029-14.298-2.049c-0.107-0.037-0.217-0.055-0.326-0.055c-0.312,0-0.614,0.146-0.806,0.408
				c-0.259,0.353-0.259,0.833,0,1.185c3.979,5.406,10.73,8.671,18.632,9.045c0.3,12.291,16.787,42.331,22.635,48.535
				c0.876,0.929,1.515,1.326,2.137,1.326c0.409,0,0.773-0.174,1.028-0.491c0.442-0.55,0.479-1.415,0.131-2.984
				c-1.28-5.761-2.407-10.369-3.312-14.071c-3.416-13.975-4.228-17.295-1.905-33.561c0.236-1.672-0.011-3.204-0.716-4.489
				c4.354-3.258,6.964-7.611,7.386-12.355c0.008-0.051,0.012-0.104,0.012-0.158c0-0.552-0.445-1-0.997-1h-0.001
				C980.113,475.55,980.112,475.55,980.11,475.55L980.11,475.55z M980.11,477.55h0.005H980.11L980.11,477.55z"/>
		</g>
		<g>
			<path d="M1062.584,544.157c-0.217,0-0.411-0.094-0.547-0.264c-0.222-0.275-0.37-0.781,0.034-2.602
				c0.52-2.337,1.008-4.511,1.466-6.544c4.827-21.474,6.125-27.246,3.408-46.267c-0.188-1.335-0.115-2.472,0.217-3.39
				c-4.678-3.289-7.362-7.603-7.771-12.5c-0.018-0.203,0.091-0.396,0.271-0.487c0.072-0.037,0.149-0.054,0.227-0.054
				c0.118,0,0.234,0.042,0.328,0.122c10.091,8.755,21.486,10.592,29.269,10.592c8.348,0,14.4-2.056,14.461-2.077
				c0.054-0.019,0.108-0.027,0.163-0.027c0.155,0,0.307,0.073,0.402,0.204c0.13,0.176,0.13,0.417,0,0.593
				c-4.157,5.648-11.369,8.887-19.787,8.887c0,0,0,0-0.001,0c-0.86,0-1.73-0.035-2.598-0.104c0.471,1.073,0.756,2.171,0.851,3.277
				c0.997,11.272-14.808,45.049-19.31,49.967C1063.241,543.95,1062.907,544.157,1062.584,544.157z"/>
			<path d="M1059.89,472.55c9.888,8.578,20.989,10.714,29.596,10.714c8.54,0,14.624-2.104,14.624-2.104
				c-4.426,6.014-11.862,8.684-19.385,8.684c-1.146,0-2.296-0.062-3.435-0.184c0.64,1.2,1.07,2.51,1.19,3.9
				c1.066,12.056-17.442,50.097-19.896,50.097c-0.333,0-0.37-0.699-0.024-2.257c5.98-26.91,7.87-32.06,4.88-52.99
				c-0.21-1.49-0.07-2.65,0.34-3.5C1063.39,481.93,1060.32,477.71,1059.89,472.55 M1059.89,471.55c-0.154,0-0.309,0.036-0.453,0.108
				c-0.363,0.184-0.578,0.569-0.544,0.975c0.406,4.87,3.125,9.337,7.682,12.652c-0.259,0.923-0.301,2.017-0.126,3.264
				c2.704,18.931,1.411,24.683-3.4,46.084c-0.458,2.035-0.946,4.21-1.466,6.549c-0.374,1.681-0.356,2.5,0.063,3.023
				c0.23,0.287,0.571,0.451,0.937,0.451c0.609,0,1.096-0.446,1.452-0.835c4.533-4.951,20.444-38.982,19.44-50.35
				c-0.078-0.902-0.276-1.798-0.591-2.68c0.615,0.034,1.23,0.051,1.84,0.051c8.579,0,15.939-3.314,20.19-9.091
				c0.259-0.352,0.259-0.832,0-1.185c-0.192-0.261-0.494-0.408-0.806-0.408c-0.109,0-0.219,0.018-0.326,0.055
				c-0.06,0.021-6.045,2.049-14.298,2.049c-7.697,0-18.966-1.816-28.94-10.469C1060.359,471.633,1060.126,471.55,1059.89,471.55
				L1059.89,471.55z"/>
		</g>
	</g>
</g>
<g id="surprise" class="st2">
	<circle class="st4" cx="959" cy="486" r="15.5"/>
	<circle class="st4" cx="1078" cy="486" r="15.5"/>
	<ellipse class="st4" cx="1025.5" cy="592.5" rx="43" ry="21"/>
</g>
<g id="frown" class="st2">
	<path class="st4" d="M939.628,601.688c86.706-59.797,158.463-11.959,158.463-11.959s11.959-17.939,26.909-11.959
		c-26.909,8.97-14.949,38.868-14.949,38.868s-14.949-2.99-14.949-20.929c-62.787-41.858-149.493,11.959-149.493,11.959
		s5.98,17.939-14.949,26.909c8.97-20.929-2.99-35.878-14.949-44.848C910.361,585.717,933.648,583.748,939.628,601.688z"/>
</g>
<g id="smile">
	<path class="st1" d="M939.609,582.277c86.706,59.797,158.463,11.959,158.463,11.959s11.959,17.939,26.909,11.959
		c-26.909-8.97-14.949-38.868-14.949-38.868s-14.949,2.99-14.949,20.929c-62.787,41.858-149.493-11.959-149.493-11.959
		s5.98-17.939-14.949-26.909c8.97,20.929-2.99,35.878-14.949,44.848C910.342,598.247,933.629,600.216,939.609,582.277z"/>
</g>
</svg>
